<?xml version="1.0" standalone="no"?><!DOCTYPE svg PUBLIC "-//W3C//DTD SVG 1.1//EN" "http://www.w3.org/Graphics/SVG/1.1/DTD/svg11.dtd"><svg t="1535436442844" class="icon" style="" viewBox="0 0 1024 1024" version="1.1" xmlns="http://www.w3.org/2000/svg" p-id="1825" xmlns:xlink="http://www.w3.org/1999/xlink" width="200" height="200"><defs><style type="text/css"></style></defs><path d="M873.0624 34.13333333L374.23786667 34.13333333 121.0368 283.57973333l0 676.4544C121.0368 976.55466667 134.41706667 989.86666667 150.86933333 989.86666667l722.19306667 0c16.52053333 0 29.9008-13.312 29.9008-29.9008L902.9632 63.96586667C902.9632 47.44533333 889.58293333 34.13333333 873.0624 34.13333333zM794.48746667 863.16373333c0 16.384-13.38026667 29.83253333-29.83253334 29.83253334L246.1696 892.99626667c-16.45226667 0-29.83253333-13.38026667-29.83253333-29.83253334L216.33706667 318.19093333l190.464 0L406.80106667 132.64213333l357.7856 0c16.384 0 29.83253333 13.312 29.83253333 29.83253334L794.4192 863.16373333z" p-id="1826"></path><path d="M310.81813333 448.98986667l326.2464 0 0 56.32-326.2464 0 0-56.32Z" p-id="1827"></path><path d="M310.81813333 582.92906667l201.18186667 0 0 56.32-201.18186667 0 0-56.32Z" p-id="1828"></path><path d="M310.81813333 707.31093333l385.91146667 0 0 56.32-385.91146667 0 0-56.32Z" p-id="1829"></path></svg>