<?xml version="1.0" standalone="no"?><!DOCTYPE svg PUBLIC "-//W3C//DTD SVG 1.1//EN" "http://www.w3.org/Graphics/SVG/1.1/DTD/svg11.dtd"><svg t="1530257309014" class="icon" style="" viewBox="0 0 1024 1024" version="1.1" xmlns="http://www.w3.org/2000/svg" p-id="1604" xmlns:xlink="http://www.w3.org/1999/xlink" width="300" height="300"><defs><style type="text/css"></style></defs><path d="M144.9984 233.32408888a365.83651555 177.09283555 0 1 0 731.67303111 0 365.83651555 177.09283555 0 1 0-731.67303111 0Z" fill="" p-id="1605"></path><path d="M144.9984 392.35811555V505.37130666c350.69041778 208.55011555 731.09048889 0 731.09048889 0v-113.01319111c-407.19701333 180.00554667-731.09048889 0-731.09048889 0z" fill="" p-id="1606"></path><path d="M144.9984 584.01450666v113.01319112c350.69041778 208.55011555 731.09048889 0 731.09048889 0V584.01450666c-407.19701333 180.00554667-731.09048889 0-731.09048889 0z" fill="" p-id="1607"></path><path d="M144.9984 769.84547555V882.85866666c350.69041778 208.55011555 731.09048889 0 731.09048889 0V769.84547555c-407.19701333 180.00554667-731.09048889 0-731.09048889 0z" fill="" p-id="1608"></path></svg>