<?xml version="1.0" standalone="no"?><!DOCTYPE svg PUBLIC "-//W3C//DTD SVG 1.1//EN" "http://www.w3.org/Graphics/SVG/1.1/DTD/svg11.dtd"><svg t="1538011622430" class="icon" style="" viewBox="0 0 1024 1024" version="1.1" xmlns="http://www.w3.org/2000/svg" p-id="2417" xmlns:xlink="http://www.w3.org/1999/xlink" width="200" height="200"><defs><style type="text/css"></style></defs><path d="M853.54666667 34.02666667H162.88c-46.61333333 0-84.8 38.18666667-84.8 84.8v786.45333333c0 46.61333333 38.18666667 84.8 84.8 84.8h690.66666667c46.61333333 0 84.8-38.18666667 84.8-84.8V118.82666667c0.10666667-46.61333333-38.08-84.8-84.8-84.8zM404.26666667 417.81333333c-18.34666667 0-33.28-14.93333333-33.28-33.28s14.93333333-33.28 33.28-33.28h62.50666666l-70.72-70.72c-12.90666667-12.90666667-12.90666667-34.13333333 0-47.04 12.90666667-12.90666667 34.13333333-12.90666667 47.04 0l65.06666667 65.06666667 65.06666667-65.06666667c12.90666667-12.90666667 34.13333333-12.90666667 47.04 0 12.90666667 12.90666667 12.90666667 34.13333333 0 47.04l-70.72 70.72H612.26666667c18.34666667 0 33.28 14.93333333 33.28 33.28s-14.93333333 33.28-33.28 33.28h-70.72v29.65333334H612.26666667c18.34666667 0 33.28 14.93333333 33.28 33.28s-14.93333333 33.28-33.28 33.28h-70.72V563.30666667c0 18.34666667-14.93333333 33.28-33.28 33.28s-33.28-14.93333333-33.28-33.28v-49.28H404.26666667c-18.34666667 0-33.28-14.93333333-33.28-33.28s14.93333333-33.28 33.28-33.28h70.72v-29.65333334H404.26666667z m260.69333333 382.50666667H351.57333333c-18.34666667 0-33.28-14.93333333-33.28-33.28s14.93333333-33.28 33.28-33.28h313.38666667c18.34666667 0 33.28 14.93333333 33.28 33.28s-14.93333333 33.28-33.28 33.28z m0-119.25333333H351.57333333c-18.34666667 0-33.28-14.93333333-33.28-33.28s14.93333333-33.28 33.28-33.28h313.38666667c18.34666667 0 33.28 14.93333333 33.28 33.28 0 18.45333333-14.93333333 33.28-33.28 33.28z" p-id="2418"></path></svg>