<?xml version="1.0" standalone="no"?><!DOCTYPE svg PUBLIC "-//W3C//DTD SVG 1.1//EN" "http://www.w3.org/Graphics/SVG/1.1/DTD/svg11.dtd"><svg t="1539761649273" class="icon" style="" viewBox="0 0 1024 1024" version="1.1" xmlns="http://www.w3.org/2000/svg" p-id="2497" xmlns:xlink="http://www.w3.org/1999/xlink" width="200" height="200"><defs><style type="text/css"></style></defs><path d="M512 417.43397925a330.10725925 330.10725925 0 0 1 317.67969185-19.41807407 323.69929482 323.69929482 0 1 0-635.3593837 0 330.10725925 330.10725925 0 0 1 317.67969185 19.41807407zM265.58464 432.96843852a265.25089185 265.25089185 0 0 0 122.13968592 135.92651851 327.19454815 327.19454815 0 0 1 75.34212741-112.62482962 271.85303703 271.85303703 0 0 0-197.48181333-23.30168889zM600.35223703 688.51029333a256.70693925 256.70693925 0 0 0-3.30107258-40.77795555 328.16545185 328.16545185 0 0 1-170.1023289 0 256.70693925 256.70693925 0 0 0-3.30107258 40.77795555A262.53236148 262.53236148 0 0 0 512 885.99210667a262.53236148 262.53236148 0 0 0 88.35223703-197.48181334zM758.41536 432.96843852a270.68795259 270.68795259 0 0 0-197.48181333 23.49586963 324.67019852 324.67019852 0 0 1 75.34212741 112.62482963 265.25089185 265.25089185 0 0 0 122.13968592-136.12069926zM581.71088592 590.83738075A268.55196445 268.55196445 0 0 0 512 491.22266075a268.55196445 268.55196445 0 0 0-69.71088592 99.61472 269.32868741 269.32868741 0 0 0 139.42177184 0z" p-id="2498"></path><path d="M829.67969185 397.6275437a323.50511408 323.50511408 0 0 1-176.51029333 228.93909333 326.80618667 326.80618667 0 0 1-123.49895111 322.92257186l-16.69954371 12.62174814a321.95166815 321.95166815 0 0 0 174.76266667 52.23461927 324.0876563 324.0876563 0 0 0 141.16939852-616.7180326zM364.81099852 688.51029333a325.25274075 325.25274075 0 0 1 6.01960296-61.9436563 323.50511408 323.50511408 0 0 1-176.51029333-228.93909333 324.0876563 324.0876563 0 0 0 141.16939852 616.7180326 321.95166815 321.95166815 0 0 0 174.76266666-52.23461927l-16.6995437-12.62174814a324.67019852 324.67019852 0 0 1-128.74183111-260.97891556z" p-id="2499"></path></svg>