<?xml version="1.0" standalone="no"?><!DOCTYPE svg PUBLIC "-//W3C//DTD SVG 1.1//EN" "http://www.w3.org/Graphics/SVG/1.1/DTD/svg11.dtd"><svg t="1528178059747" class="icon" style="" viewBox="0 0 1024 1024" version="1.1" xmlns="http://www.w3.org/2000/svg" p-id="8590" xmlns:xlink="http://www.w3.org/1999/xlink" width="200" height="200"><defs><style type="text/css"></style></defs><path d="M198.336 644.48C-60.864 778.368 60.288 897.6 60.288 897.6c335.424 256.64 894.208-339.648 894.208-339.648-364.8 317.76-690.304 317.76-690.304 317.76-243.328-10.432-65.856-231.232-65.856-231.232zM545.216 62.272l-447.36 346.88V503.04l461.952-336.128L992 503.04V409.152L545.216 62.272z m367.808 100.736h-141.12v36.288l141.12 112V163.008z m-24.064 414.976V446.72L558.656 193.536 228.288 446.72v358.016s0 4.352 1.92 11.264c15.872 4.224 35.008 6.976 57.728 8.128-0.064 0 273.984 0 601.024-246.144zM558.656 405.44h47.424v62.72h-47.424v-62.72z m-0.896 72.448h47.232v62.336h-47.232v-62.336z m-62.528-72.448h49.984v62.72h-49.984v-62.72z m-1.088 72.448h49.792v62.336h-49.792v-62.336z m0 0" p-id="8591"></path></svg>