<?xml version="1.0" standalone="no"?><!DOCTYPE svg PUBLIC "-//W3C//DTD SVG 1.1//EN" "http://www.w3.org/Graphics/SVG/1.1/DTD/svg11.dtd"><svg t="1537863365034" class="icon" style="" viewBox="0 0 1024 1024" version="1.1" xmlns="http://www.w3.org/2000/svg" p-id="2235" xmlns:xlink="http://www.w3.org/1999/xlink" width="200" height="200"><defs><style type="text/css"></style></defs><path d="M1002.92949333 563.71996446v309.34584888c0 11.12974222-4.07210667 20.75761778-12.19470222 28.87907556-8.13283555 8.13397333-17.75957333 12.19470222-28.87907556 12.19470222h-903.64814222c-11.12974222 0-20.75761778-4.06072889-28.87907555-12.19470222-8.13397333-8.12259555-12.19470222-17.74933333-12.19470223-28.87907556v-309.34584888c0-26.52501333 5.34528-52.83726222 16.04380445-78.94016l152.74780445-354.26986667c4.27121778-10.68828445 12.0832-19.67559111 23.42456888-26.95509333 11.33112889-7.26812445 22.56213333-10.91128889 33.69415112-10.9112889h533.97390222c11.12064 0 22.35278222 3.63975111 33.69415111 10.9112889 11.33112889 7.28177778 19.14311111 16.26680889 23.42456889 26.95509333l152.74780444 354.27100444c10.69056 26.10176 16.04494222 52.41400889 16.04494222 78.93902223zM673.68846222 544.4664889h202.80433778c-0.43235555-1.28455111-0.96483555-3.09930667-1.60654222-5.45450667-0.64170667-2.34496-1.18328889-3.95036445-1.60654223-4.8128l-136.06001777-318.32860444h-454.38862223l-136.06001777 318.32860444c-0.43235555 1.28455111-0.96483555 3.10954667-1.60654223 5.45450667-0.64170667 2.35633778-1.18328889 3.96060445-1.60654222 4.8128h202.80888889l60.97123556 123.22360889h205.37457777l60.97237334-123.22360889z" p-id="2236"></path></svg>