<?xml version="1.0" standalone="no"?><!DOCTYPE svg PUBLIC "-//W3C//DTD SVG 1.1//EN" "http://www.w3.org/Graphics/SVG/1.1/DTD/svg11.dtd"><svg t="1539139598056" class="icon" style="" viewBox="0 0 1024 1024" version="1.1" xmlns="http://www.w3.org/2000/svg" p-id="2409" xmlns:xlink="http://www.w3.org/1999/xlink" width="200" height="200"><defs><style type="text/css"></style></defs><path d="M997.45185185 512c0 9.34494815-3.39816297 17.59762963-10.31585185 24.39395555L848.5394963 675.23318518c-6.79632592 6.79632592-15.04900741 10.31585185-24.39395555 10.31585185-9.34494815 0-17.59762963-3.39816297-24.39395557-10.31585185-6.79632592-6.79632592-10.31585185-14.92764445-10.31585185-24.39395555v-69.41961481H234.68562963v69.41961481c0 9.34494815-3.39816297 17.59762963-10.31585185 24.39395555-6.79632592 6.79632592-15.04900741 10.31585185-24.39395556 10.31585185-9.34494815 0-17.59762963-3.39816297-24.39395555-10.31585185L36.864 536.27259259c-6.79632592-6.79632592-10.31585185-14.92764445-10.31585185-24.39395556 0-9.34494815 3.39816297-17.59762963 10.31585185-24.39395555l138.71786667-138.71786666c6.79632592-6.79632592 14.92764445-10.31585185 24.39395555-10.31585185 9.34494815 0 17.59762963 3.39816297 24.39395556 10.31585185 6.79632592 6.79632592 10.31585185 15.04900741 10.31585185 24.39395555v69.41961481h554.87146667v-69.41961481c0-9.34494815 3.39816297-17.59762963 10.31585185-24.39395555 6.79632592-6.79632592 14.92764445-10.31585185 24.39395555-10.31585185 9.34494815 0 17.59762963 3.39816297 24.39395555 10.31585185l138.83922964 138.71786666c6.5536 6.91768889 9.95176297 15.17037037 9.95176296 24.51531852z" p-id="2410"></path></svg>