<?xml version="1.0" standalone="no"?><!DOCTYPE svg PUBLIC "-//W3C//DTD SVG 1.1//EN" "http://www.w3.org/Graphics/SVG/1.1/DTD/svg11.dtd"><svg t="1537862956854" class="icon" style="" viewBox="0 0 1024 1024" version="1.1" xmlns="http://www.w3.org/2000/svg" p-id="2206" xmlns:xlink="http://www.w3.org/1999/xlink" width="200" height="200"><defs><style type="text/css"></style></defs><path d="M14.8973037 346.29910124h165.70089877v662.80359506H14.8973037zM263.44865185 14.8973037h165.70089876v994.2053926H263.44865185zM512 553.42522469h165.70089876v455.67747161H512zM1009.1026963 594.85044939a124.27567408 124.27567408 0 0 0-82.85044939-117.19454974V594.85044939h-82.85044938v-117.19454974a124.27567408 124.27567408 0 0 0 0 234.38909946v280.02157353A17.03612365 17.03612365 0 0 0 860.43792118 1009.1026963h48.77820207A17.03612365 17.03612365 0 0 0 926.25224691 992.06657264V712.04499911A124.27567408 124.27567408 0 0 0 1009.1026963 594.85044939z" p-id="2207"></path></svg>