<?xml version="1.0" standalone="no"?><!DOCTYPE svg PUBLIC "-//W3C//DTD SVG 1.1//EN" "http://www.w3.org/Graphics/SVG/1.1/DTD/svg11.dtd"><svg t="1537430729746" class="icon" style="" viewBox="0 0 1024 1024" version="1.1" xmlns="http://www.w3.org/2000/svg" p-id="2095" xmlns:xlink="http://www.w3.org/1999/xlink" width="200" height="200"><defs><style type="text/css"></style></defs><path d="M919.53125 158.4125l-81.50625 0-96.80625 0L613.925 62 410.13125 62 282.78125 158.4125 185.975 158.4125l-81.5625 0C81.9125 158.4125 62 183.78125 62 206.28125L62 247.0625C62 269.5625 81.9125 287 104.4125 287l37.9125 0 0 632.53125c0 22.5 21.09375 42.46875 43.59375 42.46875l652.10625 0c22.5 0 43.59375-19.96875 43.59375-42.46875L881.61875 287l37.9125 0C942.0875 287 962 269.5625 962 247.11875L962 206.3375C962 183.78125 942.0875 158.4125 919.53125 158.4125L919.53125 158.4125zM351.29375 807.48125c0 16.875-16.03125 25.93125-32.90625 25.93125L298.025 833.4125c-16.875 0-27.1125-9.05625-27.1125-25.93125L270.9125 318.3875C270.9125 301.5125 281.15 287 298.025 287l20.3625 0c16.875 0 32.85 14.5125 32.85 31.3875L351.2375 807.48125 351.29375 807.48125zM560.20625 807.48125c0 16.875-21.15 25.93125-38.025 25.93125L501.81875 833.4125c-16.875 0-38.025-9.05625-38.025-25.93125L463.79375 318.3875C463.79375 301.5125 484.94375 287 501.81875 287l20.41875 0c16.875 0 38.025 14.5125 38.025 31.3875L560.2625 807.48125 560.20625 807.48125zM753.0875 318.3875l0 489.09375c0 16.875-10.2375 25.93125-27.1125 25.93125l-20.41875 0c-16.875 0-32.85-9.05625-32.85-25.93125L672.70625 318.3875c0-16.875 15.975-31.3875 32.90625-31.3875l20.41875 0C742.85 287 753.0875 301.5125 753.0875 318.3875L753.0875 318.3875zM753.0875 318.3875" p-id="2096"></path></svg>