<?xml version="1.0" standalone="no"?><!DOCTYPE svg PUBLIC "-//W3C//DTD SVG 1.1//EN" "http://www.w3.org/Graphics/SVG/1.1/DTD/svg11.dtd"><svg t="1543559380202" class="icon" style="" viewBox="0 0 1024 1024" version="1.1" xmlns="http://www.w3.org/2000/svg" p-id="8089" xmlns:xlink="http://www.w3.org/1999/xlink" width="200" height="200"><defs><style type="text/css"></style></defs><path d="M724.1 652.4c-11.7-11.7-30.7-11.7-42.4 0L543 792.6V158.3c0-16.6-13.4-30-30-30s-30 13.4-30 30V793L342.2 652.2l-0.3-0.3c-11.8-11.6-30.8-11.5-42.4 0.4-11.6 11.8-11.5 30.8 0.4 42.4l189.5 189.5c5.5 7 14 11.5 23.6 11.5 8 0 15.7-3.2 21.3-8.9l190.1-192.2c11.4-11.8 11.3-30.6-0.3-42.2z" p-id="8090"></path></svg>