<?xml version="1.0" standalone="no"?><!DOCTYPE svg PUBLIC "-//W3C//DTD SVG 1.1//EN" "http://www.w3.org/Graphics/SVG/1.1/DTD/svg11.dtd"><svg t="1540880196190" class="icon" style="" viewBox="0 0 1024 1024" version="1.1" xmlns="http://www.w3.org/2000/svg" p-id="2903" xmlns:xlink="http://www.w3.org/1999/xlink" width="200" height="200"><defs><style type="text/css"></style></defs><path d="M75.09333333 846.96177778l873.81333334 0 0 101.94488889-873.81333334 0 0-101.94488889ZM762.63879111 530.20444445l-200.81686756 211.78322488c-12.45912178 12.75039289-30.05189689 21.037056-49.82192355 21.037056s-37.35552-8.28666311-49.610752-21.168128L261.15003733 530.35736178c-10.50032355-11.403264-17.19227733-26.13430045-17.19227733-42.467328 0-35.06176 30.015488-63.48982045 67.01420089-63.48982045 0.51700622 0 1.01944889 0.065536 1.52917333 0.08009956l0-0.40049778 132.47738311 0L444.97851733 268.44637867c0-35.08360533 30.02276978-63.51166578 67.01420089-63.51166578 37.01327645 0 67.02148267 28.42077867 67.02148267 63.51166578l0 155.63343644 130.03070578 0 0 0.50972444c1.32528355-0.07281778 2.62872178-0.20388978 3.98313244-0.20388977 37.00599467 0 67.01420089 28.43534222 67.01420089 63.504384C780.04952178 504.22306133 773.35028622 518.946816 762.63879111 530.20444445zM402.77333333 75.09333333l218.45333334 0 0 369.55022222-218.45333334 0 0-369.55022222Z" p-id="2904"></path></svg>