<?xml version="1.0" standalone="no"?><!DOCTYPE svg PUBLIC "-//W3C//DTD SVG 1.1//EN" "http://www.w3.org/Graphics/SVG/1.1/DTD/svg11.dtd"><svg t="1530257086573" class="icon" style="" viewBox="0 0 1024 1024" version="1.1" xmlns="http://www.w3.org/2000/svg" p-id="1486" xmlns:xlink="http://www.w3.org/1999/xlink" width="300" height="300"><defs><style type="text/css"></style></defs><path d="M343.07640286 605.07776819q24.13194244 111.00693525 86.87499281 176.96757796t152.83563551 65.96064268q51.48147723 0 86.07059473-11.26157313t61.13425421-25.7407386 49.06828297-25.74073863 48.26388489-11.26157315q28.95833093 0 52.28587529 8.04398083t50.67707916 33.78471942q-28.95833093 35.39351559-67.56943886 67.56943887t-86.87499281 57.11226378-108.59374101 39.415506-132.72568347 14.47916547q-109.39813909 0-200.29512231-33.78471944t-156.05322783-95.7233717-100.54976019-149.61804316-35.3935156-197.07753001q0-107.78934293 35.3935156-197.88192807t98.94096402-155.24882973 153.6400336-100.54976021 201.09952038-35.39351558q104.5717506 0 188.22915108 37.00231174t141.57406239 97.33216787 89.28818704 135.94327578 31.37152519 152.83563552q0 152.8356355-172.14118947 152.83563549l-466.55088732 0zM557.04629259 457.06852118l65.96064266 0q41.82870022 0 65.15624462-11.26157313t34.5891175-27.34953478 11.26157315-35.3935156-3.21759231-37.00231174q-4.82638849-17.69675779-15.28356358-49.87268107t-32.17592325-64.35184652-57.1122638-55.50346765-88.48378898-23.32754435q-96.52776979 0-150.42244125 75.61341968t-57.11226378 228.44905516l226.84025902 0z" p-id="1487"></path></svg>