<?xml version="1.0" standalone="no"?><!DOCTYPE svg PUBLIC "-//W3C//DTD SVG 1.1//EN" "http://www.w3.org/Graphics/SVG/1.1/DTD/svg11.dtd"><svg t="1537322227567" class="icon" style="" viewBox="0 0 1024 1024" version="1.1" xmlns="http://www.w3.org/2000/svg" p-id="1943" xmlns:xlink="http://www.w3.org/1999/xlink" width="200" height="200"><defs><style type="text/css"></style></defs><path d="M354.32899106 16.19162757c-77.02230903-1.86163018-154.16259986-1.89516155-231.18118427 0.06706396-65.39053556 1.66540812-104.30717527 40.39327622-106.22345033 106.1700482-2.18204418 74.92347373-1.97464459 149.99473478-0.12791778 224.93311067 1.70514842 69.22805187 40.85775292 107.84663264 109.2114963 110.50805567 37.43627734 1.45552421 74.97563431 0.25956018 112.47028118 0.25956018 0 0.03477413 0 0.0683055 0 0.10183689 35.40947217 0 70.8201871 0.00745168 106.23090202-0.01117754 4.16414045-0.00124155 8.3444246 0.05091905 12.49117859-0.26328603 59.38091107-4.50939259 98.86758897-38.35281044 101.70660607-97.91131435 3.86111291-81.03121047 3.82261294-162.48839646 0.41231609-243.55065401C456.6577959 53.16591252 417.72501129 17.72290777 354.32899106 16.19162757zM355.21075003 286.99485798c-2.24786538 48.09438974-16.69878518 64.80559399-62.57138923 67.22856915-37.28973156 1.96843444-74.88497376 2.14230267-112.13868965-0.18131991-39.10416854-2.43912006-56.18173846-19.34778914-58.65563265-58.9251276-2.45650773-39.31156814-2.55710186-79.03917822 0.10307842-118.32590943 2.69247132-39.75617407 19.56512473-54.96341936 59.72740475-56.96166055 35.23560395-1.75482592 70.65377056-1.3710738 105.93780925-0.24838265 51.52580009 1.64181151 65.39550295 16.0057966 67.63219202 67.69553013 0.71782673 16.59073938 0.11177286 33.23860551 0.11177287 49.86039198C355.33369921 253.75749401 355.98570474 270.4090872 355.21075003 286.99485798z" p-id="1944"></path><path d="M459.67192276 688.49967892c-5.96367406-72.93889316-50.81790813-120.09687905-123.96916948-124.71680174-64.31131178-4.06106081-129.29077399-4.1417854-193.59339254-0.01490337-75.17806531 4.82608075-122.46396897 55.63405411-125.2197772 130.30790242-2.22551154 60.33594292-2.19073741 120.88301127 0 181.22268005 2.70985777 74.67260677 51.13087044 126.98329634 124.61496487 131.22816136 64.36471391 3.71705022 129.25972571 3.51213492 193.65424636 0.0732729 71.60135195-3.82385569 118.1942658-52.08093613 124.43240342-124.47711232 2.67135901-31.00936814 0.44584748-62.44222991 0.44584747-93.68135271 0.03228982-0.00124155 0.06333812-0.00124155 0.0968695-0.00124154C460.13515791 755.11349977 462.37929745 721.60415775 459.67192276 688.49967892zM355.04805934 840.66155452c-2.65893994 42.18411781-15.13769825 57.79746907-55.37573547 60.43529671-41.28745548 2.70613194-82.94375849 1.56729586-124.35664744-0.02856399-31.08264224-1.19844713-51.23891746-19.12424463-52.71182814-50.5335098-2.0354984-43.42851538-3.04517515-87.19855828 0.10680426-130.48797958 2.62043997-36.00434973 19.39249804-49.13635632 58.03467541-50.8800047 37.26489342-1.68279457 74.70737969-1.60703739 111.98717648-0.1440627 45.0492146 1.76724499 59.32129879 16.02566736 62.26836169 59.65413187 1.25433356 18.58401197 0.20988389 37.3220214 0.2098839 55.99048378C355.2442814 803.33580729 356.22042677 822.06760656 355.04805934 840.66155452z" p-id="1945"></path><path d="M665.61491551 457.16449721c81.1318046 2.64900396 162.48467061 2.70861622 243.61026628-0.03477414 58.3836534-1.97340304 95.27224639-41.64636823 98.24290588-100.60751152 1.99078949-39.4705342 0.38126782-79.11990279 0.38126782-118.69103232 0.07203135 0 0.14281994 0 0.21733558 0 0-35.40450478 0.00372585-70.80900957-0.00621014-106.21475712-0.00124155-4.16538199 0.11301441-8.34194151-0.14654577-12.49366167-3.92817686-62.8384011-39.63695073-100.9776018-102.50143153-102.73491202-79.07519389-2.21309247-158.30686956-2.15844758-237.38703205 0.03228983-59.77708103 1.65423058-99.17434235 38.80735115-101.19245307 97.15002148-2.80548572 81.12311137-2.65397134 162.46852571-0.21981867 243.61399213C568.37050883 415.80376883 607.25113287 455.25939966 665.61491551 457.16449721zM790.16530193 119.27551636c113.09123842 0.01862922 114.62997029 1.56978017 114.64363213 115.56264831 0.01614492 117.5161806-2.41055607 119.99380063-117.46526155 119.98883324-114.55794017-0.00372585-116.04699577-3.7009053-118.73077264-119.77149765C665.70060747 109.07691327 693.57165804 117.18288998 790.16530193 119.27551636z" p-id="1946"></path><path d="M1007.85556563 677.37708985c-1.79705052-73.77594444-37.58406466-110.9265807-111.7015354-114.88456311-35.40077894-1.89019417-70.98536209-0.32538139-106.48797791-0.32538139 0 0.03228982 0 0.06582121 0 0.09935258-37.59027481 0-75.17806531-0.02856399-112.76834012 0.04098306-4.1628977 0.00621014-8.35311783 0.36636445-12.4837269 0.91529155-59.81061362 7.92962541-96.23969731 43.53532086-97.90883127 102.72994343-2.23668785 79.29004517-2.21557555 158.74278226 0.02359659 238.03406897 1.65423058 58.562489 39.57112832 98.01066815 97.81320333 102.50391583 43.59493191 3.36186331 87.73506511 2.62540735 131.46039911 0.37878351 34.97852806-1.79705052 58.15265721-26.83777722 56.53444228-54.7907939-1.51265219-26.16093355-22.53578422-45.55467435-56.02774099-48.64455719-22.80900623-2.10256114-46.04771381 0.3651229-68.83063914-1.87901662-40.08900714-3.94804641-55.5446363-19.39870819-57.65340759-59.9857234-1.94732214-37.48719638-1.92869413-75.23643604 0.01490337-112.72611552 2.13609373-41.21790722 17.64264073-57.49941012 57.09206142-59.495167 39.57609692-2.00196703 79.40057529-1.9460806 118.98784972-0.0732729 40.42432451 1.91254923 55.27265705 17.53086786 58.33894449 58.20233348 1.72377763 22.85495668-0.82587375 46.06013289 1.28662339 68.85423576 3.12714126 33.76269327 22.07379183 51.61397635 51.15819288 51.65744248 29.44331381 0.0447089 48.66070209-17.34954917 50.58194454-51.61273359C1009.50482883 756.8186494 1008.82177502 717.02894395 1007.85556563 677.37708985z" p-id="1947"></path></svg>