<?xml version="1.0" standalone="no"?><!DOCTYPE svg PUBLIC "-//W3C//DTD SVG 1.1//EN" "http://www.w3.org/Graphics/SVG/1.1/DTD/svg11.dtd"><svg t="1537256326668" class="icon" style="" viewBox="0 0 1127 1024" version="1.1" xmlns="http://www.w3.org/2000/svg" p-id="2036" xmlns:xlink="http://www.w3.org/1999/xlink" width="220.1171875" height="200"><defs><style type="text/css"></style></defs><path d="M1021.37706667 969.2448h-916.18453334c0 0-72.9696 11.35146667-72.9696-85.94346667v-786.45973333c0 0 1.6224-87.56373333 90.80746667-87.56373333h321.06986667c0 0 38.9184-8.10773333 71.34933333 42.16 30.8096 48.64746667 48.64746667 79.45706667 48.64746667 79.45706666 0 0 11.35146667 12.97173333 37.296 12.97173334-22.70186667 0 413.49866667 0 413.49866666 0 0 0 72.9696-8.10773333 72.9696 72.9696v671.32906666c0 0 11.35146667 81.07946667-66.48533333 81.07946667zM953.27146667 353.0496c0-19.4592-16.21546667-35.67466667-35.67466667-35.67466667h-713.48906667c-21.08053333 0-37.296 16.21653333-37.296 35.67466667v3.24266667c0 21.08053333 16.21546667 37.296 37.296 37.296h713.48906667c19.4592 0 35.67466667-16.21653333 35.67466667-37.296v-3.24266667z" p-id="2037"></path></svg>