<?xml version="1.0" standalone="no"?><!DOCTYPE svg PUBLIC "-//W3C//DTD SVG 1.1//EN" "http://www.w3.org/Graphics/SVG/1.1/DTD/svg11.dtd"><svg t="1538270928553" class="icon" style="" viewBox="0 0 1024 1024" version="1.1" xmlns="http://www.w3.org/2000/svg" p-id="2322" xmlns:xlink="http://www.w3.org/1999/xlink" width="200" height="200"><defs><style type="text/css"></style></defs><path d="M583.81446401 422.82853643l-79.57394712 79.02949151-79.58719414-79.02949151c-6.27117317-6.23275646-16.46215904-6.23275646-22.73465653 0-6.27117317 6.23805501-6.27117317 16.35353305 0 22.57834103l82.41544828 81.84184873-58.05272475 0c-8.61325828 0-15.58652688 6.09763514-15.58652689 13.62065788 0 7.52699698 6.9732686 13.6219835 15.58652689 13.6219835l61.87583414 0 0 30.47360698-63.71850452 0c-8.06350414 0-14.60491735 6.53611467-14.60491734 14.59034472 0 8.06217982 6.54141322 14.59829319 14.60491734 14.5982932l63.71850452 0 0 60.58954208c0 8.81461335 7.2024433 15.96406862 16.0846173 15.96406862 8.88349834 0 16.0713703-7.14812964 16.07137032-15.96406862L520.31321151 614.15361247l64.66169732 0c8.04893151 0 14.59034473-6.53611467 14.59034474-14.5982932 0-8.05423135-6.54141322-14.59034473-14.59034474-14.59034472l-64.66169732 0 0-30.47360698 61.88775683 0c8.60133559 0 15.5878512-6.09631083 15.58785119-13.6219835 0-7.52434706-6.9851913-13.62065789-15.58785119-13.62065788l-58.05139915 0 82.41412397-81.84184873c6.27249749-6.22480799 6.27249749-16.34028603 0-22.57834103C600.28854576 416.59710429 590.11345552 416.59710429 583.81446401 422.82853643zM512.00728565 15.81830814c-274.02931121 0-496.18301747 222.1470821-496.18301747 496.18301747s222.15238065 496.18301747 496.18301747 496.18301747c274.02666259 0 496.16844485-222.1470821 496.16844487-496.18301747S786.03394826 15.81830814 512.00728565 15.81830814zM817.85345948 495.18944187c-7.8065098 7.9270585-8.34434256 7.28192535-32.00629497 7.28192535L745.06202167 502.47136852l0 230.13640272c0 35.69428564-19.70504733 56.54652947-55.75037938 56.54652947l-24.42895987 0 0 0.11922439L384.16624089 789.27352381l0-0.1192244-50.46214135 0c-34.21458437 0-55.75037937-18.60288909-55.75037937-59.95103178L277.95371888 502.57204605l-39.67901037 0.01324702c-25.38539969 0-26.89291799-3.80853807-32.9494878-10.97653888-11.99391521-14.15849065-11.3063911-31.79831574 19.19238428-56.18091044l252.93729428-241.73158072c7.90056448-5.83534356 15.89518365-17.22916521 25.98946622-17.22916521l4.24039344 0c10.09428256 0 18.09022604 9.03848953 26.00403883 14.87383308L798.67299662 435.30597074C824.18026932 451.79462381 833.76321444 479.06375922 817.85345948 495.18944187z" p-id="2323"></path></svg>