<?xml version="1.0" standalone="no"?><!DOCTYPE svg PUBLIC "-//W3C//DTD SVG 1.1//EN" "http://www.w3.org/Graphics/SVG/1.1/DTD/svg11.dtd"><svg t="1538980665586" class="icon" style="" viewBox="0 0 1024 1024" version="1.1" xmlns="http://www.w3.org/2000/svg" p-id="2351" xmlns:xlink="http://www.w3.org/1999/xlink" width="200" height="200"><defs><style type="text/css"></style></defs><path d="M880.47843555 593.44440889h-117.10691555l-117.10350222-201.41966222c28.10311111-14.05041778 46.84231111-46.83776 46.84231111-79.62737778v-187.36696889c0-51.53109333-42.16149333-93.68576-93.68462222-93.68576h-187.36583112c-51.52312889 0-93.68007111 42.15694222-93.6800711 93.68576v187.36583111c0 32.78961778 18.73578667 60.89159111 46.83776 79.62737778l-117.10350223 201.4208h-117.10236444c-51.53109333 0-93.68576 42.15694222-93.68576 93.68462222v187.36583111c0 51.52312889 42.15694222 93.68007111 93.68576 93.68007111h187.36583111c51.52199111 0 93.68007111-42.15694222 93.68007111-93.68007111v-60.89614222h187.36583111v60.89614222c0 51.52312889 42.15694222 93.68007111 93.68462222 93.68007111h187.36583112c51.52312889 0 93.68007111-42.15694222 93.6800711-93.68007111v-187.36583111c0-51.52881778-42.15694222-93.68462222-93.6800711-93.68462222v0zM412.05987555 743.33980445v-56.21191112c0-46.84231111-37.47612445-88.99925333-84.31274666-93.68462222l107.73390222-187.36583111h135.84270222l107.73390222 187.36583111c-46.84231111 4.68423111-84.31160889 42.15694222-84.31160888 93.68462222v56.21191112h-182.68501334zM412.05987555 743.33980445z" p-id="2352"></path></svg>