<?xml version="1.0" standalone="no"?><!DOCTYPE svg PUBLIC "-//W3C//DTD SVG 1.1//EN" "http://www.w3.org/Graphics/SVG/1.1/DTD/svg11.dtd"><svg t="1528178471162" class="icon" style="" viewBox="0 0 1229 1024" version="1.1" xmlns="http://www.w3.org/2000/svg" p-id="13059" xmlns:xlink="http://www.w3.org/1999/xlink" width="240.0390625" height="200"><defs><style type="text/css"></style></defs><path d="M619.4688 507.2896c77.9776-48.64 124.1088-130.4064 124.1088-224.9216C743.5776 128.8704 615.1168 0 464.8448 0 311.808 0 190.5152 128.9728 190.5152 282.368c0 94.5152 44.8 176.2816 111.2064 224.9216C125.6448 571.8528 0 836.1984 0 1024l932.8128 0C932.8128 836.1984 807.168 571.8528 619.4688 507.2896zM981.8624 586.1888c56.2688-41.5744 93.9008-120.3712 93.9008-182.1184 0-127.488-96.8192-227.8912-226.7648-227.8912-21.6064 0-41.8816 2.9184-59.1872 9.984 4.352 25.856 14.4384 63.0784 14.4384 96.0512 0 80.2816-33.3312 161.8944-89.5488 214.9376 173.2608 83.0976 277.1968 345.9584 277.1968 526.6944L1228.8 1023.8464C1228.8 871.9872 1126.2464 636.3136 981.8624 586.1888z" p-id="13060"></path></svg>