<?xml version="1.0" standalone="no"?><!DOCTYPE svg PUBLIC "-//W3C//DTD SVG 1.1//EN" "http://www.w3.org/Graphics/SVG/1.1/DTD/svg11.dtd"><svg t="1546912035350" class="icon" style="" viewBox="0 0 1024 1024" version="1.1" xmlns="http://www.w3.org/2000/svg" p-id="4545" xmlns:xlink="http://www.w3.org/1999/xlink" width="200" height="200"><defs><style type="text/css"></style></defs><path d="M963.647991 561.664005c-40.448-19.2-53.567999-20.8-97.535999-12.288-8.768-106.943999-72.191999-234.879998-182.911999-285.055998 29.44-33.024 34.112-48.512 38.592-92.479999a451.199996 451.199996 0 0 1 241.919998 389.823997z m-903.295992 0c40.448-19.2 49.856-24.064 93.823999-15.552 8.768-106.943999 85.055999-228.223998 178.815999-280.639998-29.44-32.96-26.304-49.664-30.72-93.631999a451.199996 451.199996 0 0 0-241.919998 389.823997zM511.999995 1022.848a450.047996 450.047996 0 0 1-263.039997-84.351999c39.424-20.864 55.935999-27.392 75.583999-67.584 49.728 31.36 124.287999 53.951999 187.455998 53.952 63.167999 0 131.711999-27.072 181.439998-58.431999 19.712 40.192 42.176 51.2 81.663999 72.063999A450.047996 450.047996 0 0 1 511.999995 1022.848z m-361.407996-120.319999A150.527999 150.527999 0 0 1 0 752.128003 150.527999 150.527999 0 0 1 150.591999 601.600004c83.199999 0 150.591999 67.327999 150.591998 150.399999a150.527999 150.527999 0 0 1-150.591998 150.463998z m722.815992 0a150.527999 150.527999 0 0 1-150.591998-150.399998A150.527999 150.527999 0 0 1 873.407991 601.600004c83.199999 0 150.591999 67.327999 150.591999 150.399999a150.527999 150.527999 0 0 1-150.591999 150.463998zM511.999995 300.864007a150.527999 150.527999 0 0 1-150.591999-150.399998A150.527999 150.527999 0 0 1 511.999995 0.00001c83.199999 0 150.591999 67.327999 150.591999 150.399999A150.527999 150.527999 0 0 1 511.999995 300.928007z" p-id="4546"></path></svg>