<?xml version="1.0" standalone="no"?><!DOCTYPE svg PUBLIC "-//W3C//DTD SVG 1.1//EN" "http://www.w3.org/Graphics/SVG/1.1/DTD/svg11.dtd"><svg t="1546913050092" class="icon" style="" viewBox="0 0 1024 1024" version="1.1" xmlns="http://www.w3.org/2000/svg" p-id="4893" xmlns:xlink="http://www.w3.org/1999/xlink" width="200" height="200"><defs><style type="text/css"></style></defs><path d="M980.48 894.976c0 13.824-2.56 27.136-7.168 39.424-4.608 12.288-11.776 23.04-20.48 32.256-8.704 9.216-18.944 16.384-30.72 21.504s-24.576 7.68-38.912 7.68H147.456c-13.824 0-27.136-2.56-39.936-7.68-12.288-5.12-23.552-12.288-33.28-21.504-9.728-9.216-16.896-19.968-22.528-32.256-5.632-12.288-8.192-25.088-8.192-39.424V342.528c0-28.16 9.728-51.712 29.184-71.168 19.456-19.456 43.52-29.184 71.168-29.184h735.232c28.16 0 51.712 9.728 71.168 29.184 19.456 19.456 29.184 43.52 29.184 71.168v150.528h-250.88c-28.16 0-51.712 9.728-71.168 28.672-19.456 19.456-29.184 43.008-29.184 70.656 0.512 18.944 4.608 36.352 12.288 50.688 6.144 12.288 15.872 24.064 29.184 34.304 13.824 10.24 33.28 15.36 58.88 15.36h250.88l1.024 202.24zM829.952 190.976h-501.76c39.936-20.48 77.312-40.448 112.64-59.904 30.72-16.384 61.44-32.256 91.648-48.64 30.208-16.384 53.76-28.672 70.656-37.888 25.6-13.824 48.64-20.48 69.12-19.456 20.48 1.024 37.376 4.608 51.2 10.752 16.384 8.192 30.208 18.944 41.984 32.256l64.512 122.88z m-150.016 401.92c0-13.824 4.608-25.6 14.336-35.328 9.728-9.728 21.504-14.336 35.328-14.336s25.6 4.608 35.328 14.336c9.728 9.728 14.336 21.504 14.336 35.328s-4.608 26.112-14.336 35.84c-9.728 9.728-21.504 14.848-35.328 14.848s-25.6-5.12-35.328-14.848c-9.728-9.728-14.336-22.016-14.336-35.84z" fill="" p-id="4894"></path></svg>