<?xml version="1.0" standalone="no"?><!DOCTYPE svg PUBLIC "-//W3C//DTD SVG 1.1//EN" "http://www.w3.org/Graphics/SVG/1.1/DTD/svg11.dtd"><svg t="1546914078866" class="icon" style="" viewBox="0 0 1024 1024" version="1.1" xmlns="http://www.w3.org/2000/svg" p-id="4204" xmlns:xlink="http://www.w3.org/1999/xlink" width="200" height="200"><defs><style type="text/css"></style></defs><path d="M918.954667 354.4576c-1.774933-9.335467-4.522667-18.688-8.533333-28.0064l-73.642667-170.666667C813.482667 101.870933 758.596267 68.266667 693.76 68.266667L329.693867 68.266667c-64.836267 0-119.722667 33.604267-142.984533 87.517867l-73.642667 170.666667c-4.0448 9.3696-6.8096 18.807467-8.567467 28.194133C43.093333 380.501333 0 441.224533 0 512l0 136.533333c0 63.1296 34.372267 118.1184 85.333333 147.643733L85.333333 921.6c0 28.279467 22.920533 51.2 51.2 51.2l85.333333 0c28.279467 0 51.2-22.920533 51.2-51.2l0-102.4 494.933333 0 0 102.4c0 28.279467 22.920533 51.2 51.2 51.2l85.333333 0c28.279467 0 51.2-22.920533 51.2-51.2l0-136.772267c41.386667-31.146667 68.266667-80.520533 68.266667-136.2944l0-136.533333C1024 441.002667 980.6336 380.16 918.954667 354.4576zM153.6 648.533333c-37.700267 0-68.266667-30.5664-68.266667-68.266667s30.5664-68.266667 68.266667-68.266667c37.700267 0 68.266667 30.5664 68.266667 68.266667S191.300267 648.533333 153.6 648.533333zM682.666667 648.533333 341.333333 648.533333c-37.700267 0-68.266667-30.5664-68.266667-68.266667s30.5664-68.266667 68.266667-68.266667l341.333333 0c37.700267 0 68.266667 30.5664 68.266667 68.266667S720.366933 648.533333 682.666667 648.533333zM170.666667 341.333333c-0.341333 0-0.6656 0.0512-1.006933 0.0512 1.28-8.533333 3.601067-17.083733 7.645867-25.634133l59.374933-125.7472C257.1264 146.688 307.165867 119.466667 366.301867 119.466667l290.8672 0c59.153067 0 109.175467 27.221333 129.6384 70.536533l59.374933 125.7472c4.027733 8.533333 6.365867 17.083733 7.6288 25.6C853.6576 341.3504 853.504 341.333333 853.333333 341.333333L170.666667 341.333333zM870.4 648.533333c-37.700267 0-68.266667-30.5664-68.266667-68.266667s30.5664-68.266667 68.266667-68.266667 68.266667 30.5664 68.266667 68.266667S908.100267 648.533333 870.4 648.533333z" p-id="4205"></path></svg>