<?xml version="1.0" standalone="no"?><!DOCTYPE svg PUBLIC "-//W3C//DTD SVG 1.1//EN" "http://www.w3.org/Graphics/SVG/1.1/DTD/svg11.dtd"><svg t="1537862870372" class="icon" style="" viewBox="0 0 1024 1024" version="1.1" xmlns="http://www.w3.org/2000/svg" p-id="2206" xmlns:xlink="http://www.w3.org/1999/xlink" width="200" height="200"><defs><style type="text/css"></style></defs><path d="M989.86744861 791.89125515H511.60879858c-17.06517961 0-30.96147069 13.71561572-31.20498963 30.79650625l-2.00628193 141.19542966-411.25480359-315.46387501c-23.67632635-18.15865824-10.84837647-56.03292498 18.97719615-56.03292495h903.74752903c17.23485732 0 31.20498964 13.98584321 31.20498966 31.23798252v137.03361226c0 17.24899714-13.97013231 31.23326925-31.20498966 31.23326927zM478.39752702 963.88790432v-0.00471326l0.00471327 0.00471326h-0.00471327z m477.96328509-529.13054433H32.07442348c-14.36290482 0-26.00939501-11.65591673-26.00939501-26.03453243v-147.44365462c0-14.37390244 11.64649019-26.026677 26.00939501-26.02667697h493.21228469c14.54043797 0 26.2591983-11.93399966 25.99839736-26.49171966l-2.54516581-145.5112139 423.43546437 324.81028942c19.72974827 15.13588109 9.03690971 46.69750817-15.81459198 46.69750816z" fill="" p-id="2207"></path></svg>