<?xml version="1.0" standalone="no"?><!DOCTYPE svg PUBLIC "-//W3C//DTD SVG 1.1//EN" "http://www.w3.org/Graphics/SVG/1.1/DTD/svg11.dtd"><svg t="1529657487244" class="icon" style="" viewBox="0 0 1024 1024" version="1.1" xmlns="http://www.w3.org/2000/svg" p-id="14998" xmlns:xlink="http://www.w3.org/1999/xlink" width="200" height="200"><defs><style type="text/css"></style></defs><path d="M489.1136 970.6752 489.1136 84.0448l443.3152 0 0 886.656L489.1136 970.7008 489.1136 970.6752zM869.0944 274.0224 552.448 274.0224l0 63.3344 316.672 0L869.12 274.0224 869.0944 274.0224zM869.0944 464.0256 552.448 464.0256 552.448 527.36l316.672 0L869.12 464.0256 869.0944 464.0256zM869.0944 654.0288 552.448 654.0288l0 63.3344 316.672 0L869.12 654.0288 869.0944 654.0288zM109.1328 400.6912l316.672 0 0 569.984L109.1328 970.6752 109.1328 400.6912 109.1328 400.6912zM172.4416 780.6976l190.0032 0 0-63.3344L172.4416 717.3632 172.4416 780.6976 172.4416 780.6976zM172.4416 590.6944l190.0032 0L362.4448 527.36 172.4416 527.36 172.4416 590.6944 172.4416 590.6944z" p-id="14999"></path></svg>