<?xml version="1.0" standalone="no"?><!DOCTYPE svg PUBLIC "-//W3C//DTD SVG 1.1//EN" "http://www.w3.org/Graphics/SVG/1.1/DTD/svg11.dtd"><svg t="1529657457844" class="icon" style="" viewBox="0 0 1024 1024" version="1.1" xmlns="http://www.w3.org/2000/svg" p-id="14885" xmlns:xlink="http://www.w3.org/1999/xlink" width="200" height="200"><defs><style type="text/css"></style></defs><path d="M958.404285 156.378403c-83.955908 0-139.932892-55.970941-139.932892-139.927856L510.630716 44.437529 202.786009 16.450548c0 83.956915-55.969934 139.927856-139.928863 139.927856C6.885198 800.054798 510.630716 1023.938561 510.630716 1023.938561S1014.376233 800.054798 958.404285 156.378403zM792.916793 478.509191c-7.781604 7.778582-17.976451 11.669384-28.175327 11.669384-10.194847 0-20.390702-3.886773-28.170291-11.669384l-16.687239-16.688246 0 157.922436c0 53.106473-43.20472 96.314214-96.311192 96.314214l-9.28837 0-5.602029 0-5.595986 0c-12.36435 0-22.387973-10.021609-22.387973-22.390995L580.698385 500.904215c0-11.988665-9.434414-21.749411-21.283078-22.33157l-97.367742 0c-11.84665 0.58216-21.27905 10.342905-21.27905 22.33157l0 192.762385c0 12.369386-10.024631 22.390995-22.388981 22.390995l-5.595986 0-5.599008 0-9.493838 0c-53.106473 0-96.315221-43.207741-96.315221-96.314214L301.375481 461.820945 284.690256 478.509191c-15.557164 15.561193-40.78644 15.561193-56.347632 0-15.557164-15.561193-15.557164-40.787447 0-56.34864l254.112765-254.113772c7.474408-7.469372 17.608824-11.668376 28.175327-11.668376s20.704947 4.199004 28.172305 11.668376L792.916793 422.16458C808.475971 437.721744 808.475971 462.95102 792.916793 478.509191z" p-id="14886"></path></svg>