<?xml version="1.0" standalone="no"?><!DOCTYPE svg PUBLIC "-//W3C//DTD SVG 1.1//EN" "http://www.w3.org/Graphics/SVG/1.1/DTD/svg11.dtd"><svg t="1538011629403" class="icon" style="" viewBox="0 0 1024 1024" version="1.1" xmlns="http://www.w3.org/2000/svg" p-id="2532" xmlns:xlink="http://www.w3.org/1999/xlink" width="200" height="200"><defs><style type="text/css"></style></defs><path d="M1019.031752 597.831708a41.992979 41.992979 0 0 1-83.942959 0v-427.059791a84.919959 84.919959 0 0 0-84.918958-84.918959H171.112166a84.919959 84.919959 0 0 0-84.918958 84.919959v684.661665a84.919959 84.919959 0 0 0 84.919958 84.919959h339.889834a41.82298 41.82298 0 1 1 0 83.644959H169.838167A169.838917 169.838917 0 0 1 0.00025 854.160583V169.839917A169.838917 169.838917 0 0 1 169.839167 0h679.354668a169.838917 169.838917 0 0 1 169.837917 169.838917v427.992791zM766.311876 990.329516a42.459979 42.459979 0 0 1-58.678972 1.274l-126.359938-115.914944a42.161979 42.161979 0 0 1-1.739999-60.46197 43.817979 43.817979 0 0 1 61.60797-1.273999l96.383953 91.542955 211.490897-212.807896a40.46398 40.46398 0 0 1 57.575972 0.17 41.31298 41.31298 0 0 1-0.34 58.169971L766.354876 990.328516z m-158.119923-696.719659a39.99698 39.99698 0 0 1 57.617972 1.018999 42.671979 42.671979 0 0 1-1.019 59.187971l-97.019952 96.043953h90.565956c22.503989 0 40.76198 18.766991 40.76198 41.94998s-18.257991 41.94998-40.76198 41.949979h-105.809949v41.90798h105.809949c22.503989 0 40.76198 18.766991 40.76198 41.949979s-18.257991 41.94998-40.76198 41.94998h-105.809949v47.385977c0 23.224989-18.256991 41.94998-40.75998 41.949979s-40.76198-18.724991-40.76198-41.949979v-47.384977H360.058074c-22.503989 0-40.76098-18.767991-40.76098-41.94998s18.256991-41.94998 40.76098-41.949979H471.09002V533.759739H360.016074a41.35598 41.35598 0 0 1-40.76198-41.949979c0-23.183989 18.257991-41.94998 40.76198-41.94998h94.302954l-94.260954-96.553953a42.586979 42.586979 0 0 1-0.042-59.103971 39.95498 39.95498 0 0 1 57.659972-0.085l93.410954 95.958954 97.147953-96.467953z" p-id="2533"></path></svg>