<?xml version="1.0" standalone="no"?><!DOCTYPE svg PUBLIC "-//W3C//DTD SVG 1.1//EN" "http://www.w3.org/Graphics/SVG/1.1/DTD/svg11.dtd"><svg t="1537238880572" class="icon" style="" viewBox="0 0 1024 1024" version="1.1" xmlns="http://www.w3.org/2000/svg" p-id="2007" xmlns:xlink="http://www.w3.org/1999/xlink" width="300" height="300"><defs><style type="text/css"></style></defs><path d="M260.35495911 369.8944872c-47.68687653 85.4940713 26.03053284 172.23999346 26.03053285 172.23999346s6.86464259-84.80124865 35.89696502-146.88241339c27.30887645-58.3733042 76.90730832-94.25702223 76.90730832-94.25702222C296.26517244 284.83094567 260.35495911 369.8944872 260.35495911 369.8944872zM512.00596135 15.83022954c-274.02003844 0-496.18169186 222.14045795-496.18169187 496.16844485S237.98592291 1008.16844485 512.00596135 1008.16844485c274.02136274 0 496.16977046-222.14045795 496.16977047-496.16844485S786.0273241 15.83022954 512.00596135 15.83022954zM477.29461085 774.673905c0 0-285.69072557-115.17152817-286.34910572-344.49455955 0 0-6.07114111-172.99375261 173.54615669-180.86120021 0 0 57.47117674-5.76116004 112.80294903 77.51270043 0 0 45.11694103-77.51270044 138.82023359-77.51270043 0 0 138.84805321 0 156.18319576 189.47445851 0 0-0.40403575 20.20313774-9.44914942 51.67160125l-116.3703897 0 0 99.04849415L538.02324718 589.51270044l0 129.1843004 44.10618757 0C552.11550149 738.44178921 517.5379467 757.37850475 477.29461085 774.673905zM833.05449487 688.54794756L746.26750736 688.54794756l0 86.12728304-69.40945527 0 0-86.12728304L590.08431157 688.54794756l0-68.89944215 86.7724162 0 0-86.12728304 69.40945528 0 0 86.12728304 86.78831311 0L833.05449487 688.54794756z" p-id="2008"></path></svg>