<?xml version="1.0" standalone="no"?><!DOCTYPE svg PUBLIC "-//W3C//DTD SVG 1.1//EN" "http://www.w3.org/Graphics/SVG/1.1/DTD/svg11.dtd"><svg t="1530257356541" class="icon" style="" viewBox="0 0 1024 1024" version="1.1" xmlns="http://www.w3.org/2000/svg" p-id="1488" xmlns:xlink="http://www.w3.org/1999/xlink" width="300" height="300"><defs><style type="text/css"></style></defs><path d="M855.14911015 919.68955521L855.14911015 150.9095688l-120.88922141-104.83995747L328.72381372 197.49378943l0 38.83467359 366.5511298-124.25356781 0 861.97699289 245.66190961 0 0-54.36233289L855.14911015 919.68955521 855.14911015 919.68955521 855.14911015 919.68955521zM196.13575609 682.83778966l194.97564387-38.82722191 0-97.06805414-194.97564387 50.47762337L196.13575609 682.83778966 196.13575609 682.83778966 196.13575609 682.83778966zM196.13575609 974.0518893l194.97564387 0 0-100.96145688-194.97564387 15.53511097L196.13575609 974.0518893 196.13575609 974.0518893 196.13575609 974.0518893zM196.13575609 830.38346839l194.97564387-19.41361034 0-97.06805416-194.97564387 31.06277149L196.13575609 830.38346839 196.13575609 830.38346839 196.13575609 830.38346839zM196.13575609 535.29211092l194.97564387-54.35612394L391.11139996 379.98943225l-194.97564387 66.00528388L196.13575609 535.29211092 196.13575609 535.29211092 196.13575609 535.29211092zM601.67307386 282.92013655l-109.18914246-66.01273556L83.06190412 364.45307972l0 613.47730895 54.57221678 0L137.6341209 391.6311417l308.06315644-100.95524796 0 683.37475281 159.87416664 0L601.67307386 282.92013655 601.67307386 282.92013655 601.67307386 282.92013655zM601.67307386 282.92013655" p-id="1489"></path></svg>