<?xml version="1.0" standalone="no"?><!DOCTYPE svg PUBLIC "-//W3C//DTD SVG 1.1//EN" "http://www.w3.org/Graphics/SVG/1.1/DTD/svg11.dtd"><svg t="1530600179185" class="icon" style="" viewBox="0 0 1024 1024" version="1.1" xmlns="http://www.w3.org/2000/svg" p-id="2045" xmlns:xlink="http://www.w3.org/1999/xlink" width="300" height="300"><defs><style type="text/css"></style></defs><path d="M670.347947 730.2656c120.767147-61.866667 203.782827-187.306667 203.782826-332.01152 0-205.748907-167.447893-373.118293-373.292373-373.118293-205.847893 0-373.295787 167.36256-373.295787 373.118293 0 146.725547 85.415253 273.588907 208.954027 334.49984-73.23648 57.514667-118.074027 149.828267-118.237867 248.313173a16.933547 16.933547 0 0 0 4.922027 11.96032 16.889173 16.889173 0 0 0 11.956907 4.94592h539.856213a16.930133 16.930133 0 0 0 11.95008-4.94592 16.930133 16.930133 0 0 0 4.922027-11.96032c-0.167253-100.235947-46.26432-193.491627-121.51808-250.801493z m-65.809067-498.664107l5.280427 122.364587 54.152533-122.364587h42.769067l9.28768 124.439894 49.291946-124.439894h36.201814l-74.676907 178.15552h-38.157653l-12.00128-133.184853-58.84928 133.184853H578.833067l-11.103574-178.15552h36.809387z m-185.552213 0h132.078933l-5.300907 30.13632h-96.119466l-6.9632 39.482027h89.43616l-5.307734 30.030507h-89.439573l-8.543573 48.47616h99.529386l-5.300906 30.030506h-135.478614l31.409494-178.15552zM262.130347 293.5808l-20.50048 116.176213h-33.41312l31.42656-178.15552h34.986666l51.920214 118.981974 20.992-118.981974h33.399466l-31.40608 178.15552h-36.078933L262.130347 293.5808z m239.100586 306.558293c-64.139947 0-124.023467-28.61056-164.36224-78.506666-5.853867-7.222613-11.748693-20.097707 0.095574-31.952214 11.134293-13.899093 27.900587-9.87136 33.774933-2.63168 33.870507 41.939627 76.608853 62.65856 130.491733 62.65856 54.193493 0 93.58336-18.74944 127.505067-61.11232 7.55712-10.724693 17.98144-13.523627 34.245973-1.60768 15.066453 11.728213 12.980907 22.872747 3.26656 33.826134-40.372907 50.404693-100.502187 79.325867-165.0176 79.325866z" p-id="2046"></path></svg>