<?xml version="1.0" standalone="no"?><!DOCTYPE svg PUBLIC "-//W3C//DTD SVG 1.1//EN" "http://www.w3.org/Graphics/SVG/1.1/DTD/svg11.dtd"><svg t="1540865817472" class="icon" style="" viewBox="0 0 1024 1024" version="1.1" xmlns="http://www.w3.org/2000/svg" p-id="2845" xmlns:xlink="http://www.w3.org/1999/xlink" width="200" height="200"><defs><style type="text/css"></style></defs><path d="M814.40414025 623.84810667c8.28504494 0 16.57008987 0 28.99765728 4.14252247V72.89261827H292.44630914L72.89261827 346.29910124v550.95548839h571.66810075c-12.42756741-24.85513482-20.71261235-53.8527921-20.71261235-82.85044938 0-107.70558419 82.85044939-190.55603358 190.55603358-190.55603358zM512 180.59820247h219.55369086v111.84810667H512V180.59820247z m0 331.40179753v-111.84810667h219.55369086V512H512z m331.40179753 219.55369086c-62.13783703 0-111.84810667 49.71026963-111.84810667 111.84810667 0 62.13783703 49.71026963 111.84810667 111.84810667 111.84810666 62.13783703 0 111.84810667-49.71026963 111.84810666-111.84810666-4.14252247-62.13783703-49.71026963-111.84810667-111.84810666-111.84810667z" p-id="2846"></path></svg>