<?xml version="1.0" standalone="no"?><!DOCTYPE svg PUBLIC "-//W3C//DTD SVG 1.1//EN" "http://www.w3.org/Graphics/SVG/1.1/DTD/svg11.dtd"><svg t="1540186380964" class="icon" style="" viewBox="0 0 1024 1024" version="1.1" xmlns="http://www.w3.org/2000/svg" p-id="2758" xmlns:xlink="http://www.w3.org/1999/xlink" width="200" height="200"><defs><style type="text/css"></style></defs><path d="M966.18666667 410.02666666c-108.16-146.56-266.88-239.36-444.16-239.36-177.28 0-335.36 92.8-444.16 239.36-48 64.64-48 160.64 0 225.28C186.66666667 781.86666666 345.38666667 874.66666666 522.02666667 874.66666666c177.28 0 335.36-92.8 444.16-239.36C1014.18666667 570.66666666 1014.18666667 474.66666666 966.18666667 410.02666666zM522.66666667 746.66666666C399.14666667 746.66666666 298.66666667 646.18666666 298.66666667 522.66666666S399.14666667 298.66666666 522.66666667 298.66666666C646.18666667 298.66666666 746.66666667 399.14666666 746.66666667 522.66666666S646.18666667 746.66666666 522.66666667 746.66666666zM522.66666667 362.66666666C434.34666667 362.66666666 362.66666667 434.34666666 362.66666667 522.66666666S434.34666667 682.66666666 522.66666667 682.66666666C610.98666667 682.66666666 682.66666667 610.98666666 682.66666667 522.66666666S610.98666667 362.66666666 522.66666667 362.66666666z" p-id="2759"></path></svg>