<?xml version="1.0" standalone="no"?><!DOCTYPE svg PUBLIC "-//W3C//DTD SVG 1.1//EN" "http://www.w3.org/Graphics/SVG/1.1/DTD/svg11.dtd"><svg t="1540433304160" class="icon" style="" viewBox="0 0 1024 1024" version="1.1" xmlns="http://www.w3.org/2000/svg" p-id="2816" xmlns:xlink="http://www.w3.org/1999/xlink" width="200" height="200"><defs><style type="text/css"></style></defs><path d="M763.13006838 181.07718163c29.36789523 20.88608048 55.48132125 44.54506192 78.32474359 70.98471159s42.42460823 54.99198578 58.74355768 85.67254281c16.31894945 30.68055703 28.71544795 63.14757689 37.1972627 97.41659402 8.48958198 34.26901712 12.73048937 69.01960249 12.73048937 104.26729054 0 60.70089955-11.58093938 117.6502272-34.7583526 170.84798293-23.16187875 53.19775573-54.50265031 99.5370477-93.99124574 139.02564315s-85.83565463 70.82159977-139.02564315 93.99124575C629.16089173 966.4528384 572.21933132 978.03377778 511.51066453 978.03377778c-60.04068503 0-116.67155627-11.58093938-169.86154476-34.7583526-53.19775573-23.16187875-99.70015952-54.50265031-139.51497862-93.99124575s-71.14005618-85.83565463-93.99124574-139.02564313-34.26901712-110.14708338-34.26901713-170.84798293c0-34.58747355 4.07779555-68.53803425 12.2411539-101.82061322 8.15559111-33.29034619 19.73653049-64.94180693 34.75835259-94.96214945 15.01405488-30.02810975 33.60880261-58.09887763 55.80754488-84.19676919 22.19097505-26.11342602 46.99173925-49.60929565 74.40229263-70.50314334 14.36937482-10.43915662 29.86499792-14.35384035 46.51017102-11.7440512 16.6451731 2.60978915 30.18345435 10.7731475 40.62261097 24.47454055 10.44692385 13.7091603 14.36937482 29.04943882 11.75958565 46.02083556-2.61755638 16.97139675-10.7731475 30.68055703-24.48230779 41.11971367C284.36580125 317.81925925 252.87745232 354.69806555 231.01270092 398.42756835c-21.86475141 43.72950282-32.80877795 90.7290093-32.80877795 140.98298502 0 43.08482275 8.16335835 83.70743372 24.48230778 121.89113458 16.31894945 38.18370085 38.67303632 71.47404705 67.06226063 99.86327134 28.39699152 28.3892243 61.67957049 50.91419022 99.86327134 67.55159609 38.18370085 16.65294032 78.80631182 24.97164325 121.88336736 24.97164325 43.08482275 0 83.71520095-8.31870293 121.89113457-24.97164325 38.18370085-16.6451731 71.47404705-39.16237179 99.86327135-67.55159609 28.39699152-28.3892243 50.91419022-61.67957049 67.55159609-99.86327134 16.65294032-38.18370085 24.97164325-78.80631182 24.97164326-121.89113458 0-50.91419022-11.75181843-99.04771223-35.24768806-144.40833328s-56.45999218-82.72876278-98.87683319-112.10442524c-14.36937482-9.78670933-23.01430139-23.16964598-25.95031419-40.1332755-2.9360128-16.97916397 0.48933547-32.6378989 10.2760448-46.9995065 9.79447657-13.7091603 23.16964598-22.02786323 40.14104272-24.96387602C733.10195863 167.8573568 748.7684608 171.2904723 763.13006838 181.07718163L763.13006838 181.07718163zM511.51066453 542.34656617c-16.97139675 0-31.48834892-6.03513742-43.55862376-18.10541227-12.07804208-12.07804208-18.1131795-26.60276148-18.11317949-43.57415822L449.83886128 108.62446365c0-16.97139675 6.03513742-31.65146075 18.11317949-44.05572647S494.53926779 45.96622222 511.51066453 45.96622222c17.63161125 0 32.48255431 6.19824925 44.54506192 18.60251496 12.0858093 12.40426572 18.12094672 27.08432972 18.12094673 44.05572647l0 372.04253203c0 16.97139675-6.03513742 31.49611615-18.12094673 43.57415822C543.98545162 536.31142875 529.13450857 542.34656617 511.51066453 542.34656617L511.51066453 542.34656617zM511.51066453 542.34656617" p-id="2817"></path></svg>