<?xml version="1.0" standalone="no"?><!DOCTYPE svg PUBLIC "-//W3C//DTD SVG 1.1//EN" "http://www.w3.org/Graphics/SVG/1.1/DTD/svg11.dtd"><svg t="1538980999737" class="icon" style="" viewBox="0 0 1024 1024" version="1.1" xmlns="http://www.w3.org/2000/svg" p-id="2380" xmlns:xlink="http://www.w3.org/1999/xlink" width="200" height="200"><defs><style type="text/css"></style></defs><path d="M539.12426667 291.76106667c56.99946667 0 103.20426667-47.616 103.20426666-106.37866667 0-33.05706667-14.62293333-62.58986667-37.57866666-82.10986667 1.96373333 6.69653333 3.34933333 13.66186667 3.34933333 21.02613334 0 40.1536-31.56906667 72.68906667-70.51093333 72.68906666-38.95146667 0-70.52266667-32.53546667-70.52266667-72.68906666 0-5.88266667 0.85333333-11.52213333 2.144-16.99093334-20.40746667 19.4336-33.2832 47.168-33.2832 78.0736C435.92746667 244.14506667 482.13226667 291.76106667 539.12426667 291.76106667zM535.83893333 156.1408c37.9808 0 68.77013333-31.73226667 68.77013334-70.89066667 0-39.1456-30.78933333-70.87786667-68.77013334-70.87786666-37.98186667 0-68.77226667 31.73226667-68.77226666 70.87786666C467.06666667 124.40853333 497.856 156.1408 535.83893333 156.1408zM49.9296 791.89973333l166.19733333 66.32213334c-13.4048-27.63733333-67.0208-444.87466667-67.0208-444.87466667L49.9296 791.89973333zM725.4336 1010.2016l10.73173333-163.02826667-372.60373333 38.68586667L725.4336 1010.2016zM838.01493333 112.15893333l-180.64533333 27.47733334c10.8736 20.08853333 17.12533333 43.20533333 17.12533333 67.85386666 0 77.0656-60.59413333 139.5456-135.36853333 139.5456-74.75626667 0-135.36106667-62.48106667-135.36106667-139.5456 0-10.2208 1.13706667-20.16106667 3.14666667-29.76426666l-222.96 33.9072c8.0384 215.53066667 104.54506667 643.8304 104.54506667 643.8304l694.2784-121.58293334C934.52053333 684.13546667 838.01493333 112.15893333 838.01493333 112.15893333zM315.07733333 452.57706667l295.40053334-43.78773334 8.77866666 32.8736-295.38453333 43.80053334L315.07733333 452.57706667zM378.50453333 701.81866667l-10.73066666-37.49333334 363.56053333-53.328 10.74133333 37.49226667L378.50453333 701.81866667zM356.48106667 593.84853333l-14.33706667-37.2032 468.3008-63.488 14.34346667 37.2L356.48106667 593.84853333z" p-id="2381"></path></svg>