<?xml version="1.0" standalone="no"?><!DOCTYPE svg PUBLIC "-//W3C//DTD SVG 1.1//EN" "http://www.w3.org/Graphics/SVG/1.1/DTD/svg11.dtd"><svg t="1530600204078" class="icon" style="" viewBox="0 0 1024 1024" version="1.1" xmlns="http://www.w3.org/2000/svg" p-id="2153" xmlns:xlink="http://www.w3.org/1999/xlink" width="300" height="300"><defs><style type="text/css"></style></defs><path d="M843.408 178.832H769.04v89.808c0 26.992-21.872 48.864-48.864 48.864s-48.864-21.872-48.864-48.864v-89.808H560.304v89.808c0 26.992-21.872 48.864-48.864 48.864s-48.864-21.872-48.864-48.864v-89.808H354.832v89.808c0 26.992-21.872 48.864-48.864 48.864s-48.864-21.872-48.864-48.864v-89.808h-76.512c-44.208 0-80 35.824-80 80V846.24c0 44.16 35.792 80 80 80h662.816c44.176 0 80-35.84 80-80V258.832c0-44.16-35.824-80-80-80zM384.368 730.4c0 8.848-7.168 16-16 16H297.52c-8.848 0-16-7.152-16-16v-45.152c0-8.816 7.152-16 16-16h70.848c8.832 0 16 7.184 16 16V730.4z m0-128.688c0 8.848-7.168 16-16 16H297.52c-8.848 0-16-7.152-16-16v-45.12c0-8.848 7.152-16 16-16h70.848c8.832 0 16 7.152 16 16v45.12z m0-128.592c0 8.848-7.168 16-16 16H297.52c-8.848 0-16-7.152-16-16V428c0-8.848 7.152-16 16-16h70.848c8.832 0 16 7.152 16 16v45.12zM564.352 730.4c0 8.848-7.168 16-16 16h-70.848c-8.832 0-16-7.152-16-16v-45.152c0-8.816 7.168-16 16-16h70.848c8.832 0 16 7.184 16 16V730.4z m0-128.688c0 8.848-7.168 16-16 16h-70.848c-8.832 0-16-7.152-16-16v-45.12c0-8.848 7.168-16 16-16h70.848c8.832 0 16 7.152 16 16v45.12z m0-128.592c0 8.848-7.168 16-16 16h-70.848c-8.832 0-16-7.152-16-16V428c0-8.848 7.168-16 16-16h70.848c8.832 0 16 7.152 16 16v45.12zM744.448 730.4c0 8.848-7.152 16-16 16H657.6c-8.832 0-16-7.152-16-16v-45.152c0-8.816 7.168-16 16-16h70.848c8.848 0 16 7.184 16 16V730.4z m0-128.688c0 8.848-7.152 16-16 16H657.6c-8.832 0-16-7.152-16-16v-45.12c0-8.848 7.168-16 16-16h70.848c8.848 0 16 7.152 16 16v45.12z m0-128.592c0 8.848-7.152 16-16 16H657.6c-8.832 0-16-7.152-16-16V428c0-8.848 7.168-16 16-16h70.848c8.848 0 16 7.152 16 16v45.12z" p-id="2154"></path><path d="M511.424 300.432c18.4 0 33.328-14.928 33.328-33.328V131.088c0-18.4-14.928-33.328-33.328-33.328s-33.328 14.928-33.328 33.328v136.016c0 18.4 14.912 33.328 33.328 33.328zM305.968 300.432c18.4 0 33.328-14.928 33.328-33.328V131.088c0-18.4-14.928-33.328-33.328-33.328s-33.328 14.912-33.328 33.328v136.016c0 18.4 14.928 33.328 33.328 33.328zM720.16 300.432c18.4 0 33.328-14.928 33.328-33.328V131.088c0-18.4-14.928-33.328-33.328-33.328s-33.328 14.928-33.328 33.328v136.016c0 18.4 14.912 33.328 33.328 33.328z" p-id="2155"></path></svg>