<?xml version="1.0" standalone="no"?><!DOCTYPE svg PUBLIC "-//W3C//DTD SVG 1.1//EN" "http://www.w3.org/Graphics/SVG/1.1/DTD/svg11.dtd"><svg t="1542764361771" class="icon" style="" viewBox="0 0 1024 1024" version="1.1" xmlns="http://www.w3.org/2000/svg" p-id="3292" xmlns:xlink="http://www.w3.org/1999/xlink" width="200" height="200"><defs><style type="text/css"></style></defs><path d="M900.36148148 783.85303703l-302.92195556 186.41351112c-23.30168889 15.53445925-46.60337778 0-46.60337777-31.06891852L550.83614815 504.23277037c0-7.76722963 7.76722963-23.30168889 15.53445926-31.06891852l302.92195556-186.4135111c23.30168889-15.53445925 46.60337778 0 46.60337778 31.0689185l0 442.7320889C915.89594075 768.31857778 908.12871111 783.85303703 900.36148148 783.85303703z" p-id="3293"></path><path d="M123.63851852 783.85303703l302.92195556 186.41351112c23.30168889 15.53445925 46.60337778 0 46.60337777-31.06891852L473.16385185 504.23277037c0-7.76722963-7.76722963-23.30168889-15.53445926-31.06891852L154.70743703 286.75034075C139.17297778 278.98311111 108.10405925 294.51757037 108.10405925 317.81925925l0 442.7320889C108.10405925 768.31857778 115.87128889 783.85303703 123.63851852 783.85303703z" p-id="3294"></path><path d="M504.23277037 45.96622222L154.70743703 178.00912592c-15.53445925 7.76722963-15.53445925 31.06891852 0 38.83614816L504.23277037 434.3277037C512 434.3277037 519.76722963 434.3277037 519.76722963 434.3277037l357.29256296-217.48242962c15.53445925-7.76722963 15.53445925-31.06891852 0-38.83614816L519.76722963 45.96622222C512 45.96622222 512 45.96622222 504.23277037 45.96622222z" p-id="3295"></path></svg>