<?xml version="1.0" standalone="no"?><!DOCTYPE svg PUBLIC "-//W3C//DTD SVG 1.1//EN" "http://www.w3.org/Graphics/SVG/1.1/DTD/svg11.dtd"><svg t="1540872255768" class="icon" style="" viewBox="0 0 1024 1024" version="1.1" xmlns="http://www.w3.org/2000/svg" p-id="2874" xmlns:xlink="http://www.w3.org/1999/xlink" width="200" height="200"><defs><style type="text/css"></style></defs><path d="M830.73617222 181.35883351c-81.21377193-87.0147553-197.23468678-139.22360798-324.85632682-139.22360797-255.24452284 0-464.08117757 208.83665351-464.08117757 464.08117755s208.83665351 464.08117757 464.08117757 464.08117757c214.63763809 0 394.46813082-150.82681746 446.67822626-348.06026149l-121.82065668 0c-46.40786932 133.42262462-174.03075212 232.04058817-324.85632683 232.04058817-191.43370342 0-348.06026149-156.62780082-348.06026149-348.06026148 0-191.43370342 156.62780082-348.06026149 348.06026149-348.0602615 98.61672202 0 179.83173549 40.60688596 243.64255612 104.41770659l-185.63271885 185.63271885 406.07009875 0 0-406.07009875L830.73617222 181.35883351z" p-id="2875"></path></svg>