<?xml version="1.0" standalone="no"?><!DOCTYPE svg PUBLIC "-//W3C//DTD SVG 1.1//EN" "http://www.w3.org/Graphics/SVG/1.1/DTD/svg11.dtd"><svg t="1530257206306" class="icon" style="" viewBox="0 0 1024 1024" version="1.1" xmlns="http://www.w3.org/2000/svg" p-id="1488" xmlns:xlink="http://www.w3.org/1999/xlink" width="300" height="300"><defs><style type="text/css"></style></defs><path d="M813.6 439.5968l-45.81866667 0 0-160.42133333c0-139.82826667-112.32-252.112-252.112-252.112s-252.112 112.32-252.112 252.112l0 160.42133333-45.81866666 0c-50.42986667 0-91.696 41.23946667-91.696 91.696l0 366.7456c0 50.42986667 41.23946667 91.696 91.696 91.696l595.9072 0c50.42986667 0 91.696-41.23946667 91.696-91.696l0-366.7456c0-50.42986667-41.23946667-91.696-91.696-91.696zM515.6576 852.14186667c-38.95573333 0-68.75946667-29.80266667-68.75946667-68.75946667 0-29.80266667 18.3392-55.01866667 45.81866667-64.15786667l0-73.34293333c0-13.73973333 9.16693333-22.94933333 22.94933333-22.94933333s22.94933333 9.16693333 22.94933334 22.94933333l0 73.34293333c25.20746667 9.16693333 45.81866667 34.35733333 45.81866666 64.15786667 0 38.95573333-29.80266667 68.75946667-68.75946666 68.75946667zM309.3792 439.5968l0-160.42133333c0-114.57066667 91.696-206.28053333 206.28053333-206.28053334s206.28053333 91.696 206.28053334 206.28053334l0 160.42133333-412.5312 0z" p-id="1489"></path></svg>