<?xml version="1.0" standalone="no"?><!DOCTYPE svg PUBLIC "-//W3C//DTD SVG 1.1//EN" "http://www.w3.org/Graphics/SVG/1.1/DTD/svg11.dtd"><svg t="1535427946905" class="icon" style="" viewBox="0 0 1024 1024" version="1.1" xmlns="http://www.w3.org/2000/svg" p-id="1793" xmlns:xlink="http://www.w3.org/1999/xlink" width="200" height="200"><defs><style type="text/css"></style></defs><path d="M447.31354075 155.19288889c26.82121482 81.55591111 101.70216297 81.43454815 128.4020148 0 8.8594963-4.61179259 17.84035555-18.44717037 19.41807408-29.85528889 1.57771852-11.89357037 0.60681482-27.79211852-11.40811852-27.79211852-2.66998518-38.22933333-23.54441482-70.63324445-71.24005926-70.63324445-46.60337778 0-70.39051852 28.03484445-73.30322963 70.63324445-12.01493333 0-12.98583703 15.89854815-11.40811852 27.79211852 1.57771852 11.40811852 10.67994075 25.12213333 19.53943705 29.85528889z m0 0" p-id="1794"></path><path d="M676.32545185 538.09303703V305.92568889c0-40.77795555-29.61256297-75.97321482-71.24005926-84.71134814l-30.34074074-6.31087408-63.2301037 126.09611851-63.2301037-126.09611851-30.34074075 6.31087408c-41.6274963 8.73813333-71.24005925 43.93339259-71.24005925 84.71134814v232.16734814c0 31.19028148 25.2434963 56.55514075 56.43377777 56.55514075v345.0349037c0 31.19028148 25.2434963 56.55514075 56.43377778 56.55514074h103.76533333c31.19028148 0 56.43377778-25.2434963 56.43377778-56.55514074V594.52681482c31.31164445 0 56.55514075-25.2434963 56.55514074-56.43377779z m0 0M236.26334815 292.81848889c16.01991111 48.66654815 52.4288 61.77374815 79.9781926 40.77795556v-27.67075556c0-29.24847408 11.77220741-56.55514075 30.94755555-77.42957037-6.43223703-24.27259259-23.9085037-42.5984-56.55514075-42.5984-38.83614815 0-58.61831111 23.30168889-61.04557037 58.86103703-10.07312592 0-10.8013037 13.22856297-9.4663111 23.18032593 1.21362963 9.46631111 8.73813333 20.99579259 16.14127407 24.87940741z m0 0" p-id="1795"></path><path d="M372.79668148 619.52758518c-33.01072592-12.37902222-56.43377778-44.17611852-56.43377778-81.43454815V395.0061037L289.90577778 447.79899259l-52.79288889-105.10032592-25.36485926 5.21860741c-34.70980741 7.28177778-59.34648889 36.65161482-59.34648888 70.63324444v193.57392593c0 25.97167408 21.11715555 47.08882963 47.08882962 47.08882963v287.75158517c0 25.97167408 21.11715555 47.08882963 47.08882963 47.08882964h86.53179259c19.90352592 0 36.77297778-12.25765925 43.69066666-29.73392592-2.3058963-7.88859259-4.00497778-16.01991111-4.00497777-24.63668149V619.52758518z m0 0M707.27300741 333.59644445c27.67075555 20.99579259 63.95828148 7.88859259 79.97819259-40.77795556 7.40314075-3.88361482 14.92764445-15.4130963 16.14127408-24.87940741 1.33499259-9.95176297 0.60681482-23.18032592-9.46631111-23.18032593-2.42725925-35.43798518-22.20942222-58.86103703-61.04557038-58.86103703-32.64663703 0-50.1229037 18.32580741-56.55514074 42.5984 19.17534815 20.87442963 30.94755555 48.05973333 30.94755556 77.42957037V333.59644445z m0 0M811.76651852 347.91727408l-25.36485927-5.21860741-52.79288888 105.10032592-26.45712592-52.79288889v143.08693333c0 37.25842963-23.54441482 69.05552592-56.43377778 81.43454815v320.1554963c0 8.61677037-1.69908148 16.74808889-4.00497778 24.63668149 6.91768889 17.3549037 23.78714075 29.73392592 43.69066666 29.73392592h86.5317926c25.97167408 0 47.08882963-21.11715555 47.08882963-47.08882964V659.09191111c25.97167408 0 47.08882963-21.11715555 47.08882963-47.08882963V418.55051852c0.12136297-33.98162963-24.63668148-63.35146667-59.34648889-70.63324444z m0 0" p-id="1796"></path></svg>