<?xml version="1.0" standalone="no"?><!DOCTYPE svg PUBLIC "-//W3C//DTD SVG 1.1//EN" "http://www.w3.org/Graphics/SVG/1.1/DTD/svg11.dtd"><svg t="1541147081625" class="icon" style="" viewBox="0 0 1024 1024" version="1.1" xmlns="http://www.w3.org/2000/svg" p-id="3014" xmlns:xlink="http://www.w3.org/1999/xlink" width="200" height="200"><defs><style type="text/css"></style></defs><path d="M45.96622222 869.29256297l932.06755556 0 0 108.74121481-932.06755556 0 0-108.74121481ZM779.34804385 294.30785517L565.14338512 68.40574862C551.85365523 54.80532955 533.08802845 45.96622222 512 45.96622222s-39.845888 8.83910732-52.91813547 22.57933653L244.42670649 294.14474335c-11.20034512 12.1634816-18.33842915 27.87658715-18.33842916 45.2984832 0 37.39921067 32.01652053 67.72247515 71.48181429 67.72247514 0.5514733 0 1.08741215-0.06990507 1.63111821-0.08543952l0 0.42719762L395.49155555 407.50745979l0 372.25224723 233.0168889 0L628.50844445 407.50745979l93.68055656 0 0-0.54370607c1.41363579 0.0776723 2.8039699 0.21748243 4.24867461 0.21748243 39.47306098 0 71.48181428-30.3310317 71.48181428-67.7380096C797.9194899 322.02133049 790.77363863 306.31599218 779.34804385 294.30785517z" p-id="3015"></path></svg>