<?xml version="1.0" standalone="no"?><!DOCTYPE svg PUBLIC "-//W3C//DTD SVG 1.1//EN" "http://www.w3.org/Graphics/SVG/1.1/DTD/svg11.dtd"><svg t="1530865306582" class="icon" style="" viewBox="0 0 1024 1024" version="1.1" xmlns="http://www.w3.org/2000/svg" p-id="6408" xmlns:xlink="http://www.w3.org/1999/xlink" width="300" height="300"><defs><style type="text/css"></style></defs><path d="M504.791286 0.426551C349.07879 8.275092 219.663172 130.162082 205.459019 283.187306c-9.554746 102.862809 31.266199 199.135402 105.03822 263.50197C177.221333 623.020603 103.577278 770.713938 103.577278 930.137428l0 93.86258 363.91211 0 0-102.286965L207.463809 921.713043c3.732323-147.352093 89.618396-279.838879 228.460794-316.884846l59.845126-15.995668c1.002395-0.298586 1.727532-0.853102 2.665945-1.215671l0-57.115198-56.709975-22.5219c-92.263013-36.598088-147.480059-130.332703-130.951202-230.614877 14.332118-86.995106 84.947661-157.077459 173.094455-171.942767 134.19299-22.628538 250.982694 79.125238 250.982694 207.261202 0 48.690813-17.275321 96.144628-48.562848 133.638474l80.106305 65.006395c46.579385-55.771562 72.236437-126.301794 72.236437-198.644869C838.610212 134.875472 687.184556-8.786954 504.791286 0.426551z" p-id="6409"></path><path d="M512.298586 615.385338l408.124136 0 0 102.286965-408.124136 0 0-102.286965Z" p-id="6410"></path><path d="M512.298586 768.453217l408.124136 0 0 102.286965-408.124136 0 0-102.286965Z" p-id="6411"></path><path d="M512.298586 921.47844l408.124136 0 0 102.286965-408.124136 0 0-102.286965Z" p-id="6412"></path></svg>